<svg
                width="78"
                height="87"
                viewBox="0 0 78 87"
                fill="none"
                xmlns="http://www.w3.org/2000/svg">
                <path
                  d="M21.5556 12.7778H18.0453C13.1293 12.7778 10.6694 12.7778 8.79177 13.7345C7.14013 14.5761 5.79828 15.9179 4.95672 17.5696C4 19.4472 4 21.9071 4 26.8231V30.3333M21.5556 12.7778H56.6667M21.5556 12.7778V4M56.6667 12.7778H60.1786C65.0947 12.7778 67.5492 12.7778 69.4269 13.7345C71.0785 14.5761 72.4249 15.9179 73.2664 17.5696C74.2222 19.4454 74.2222 21.9022 74.2222 26.8087V30.3333M56.6667 12.7778V4M4 30.3333V68.9564C4 73.8724 4 76.3292 4.95672 78.2068C5.79828 79.8585 7.14013 81.2027 8.79177 82.0442C10.6676 83 13.1245 83 18.0309 83H60.1913C65.0977 83 67.5511 83 69.4269 82.0442C71.0785 81.2027 72.4249 79.8585 73.2664 78.2068C74.2222 76.331 74.2222 73.8777 74.2222 68.9713V30.3333M4 30.3333H74.2222M56.6667 65.4444H56.6754L56.6752 65.4532L56.6667 65.453V65.4444ZM39.1111 65.4444H39.1199L39.1197 65.4532L39.1111 65.453V65.4444ZM21.5556 65.4444H21.5643L21.5641 65.4532L21.5556 65.453V65.4444ZM56.6752 47.8889V47.8977L56.6667 47.8975V47.8889H56.6752ZM39.1111 47.8889H39.1199L39.1197 47.8977L39.1111 47.8975V47.8889ZM21.5556 47.8889H21.5643L21.5641 47.8977L21.5556 47.8975V47.8889Z"
                  stroke="url(#paint0_linear_820_129)"
                  stroke-width="6.15584"
                  stroke-linecap ="round"
                  stroke-linejoin="round"
                />
                <defs>
                  <linearGradient
                    id="paint0_linear_820_129"
                    x1="33.4056"
                    y1="-68.7029"
                    x2="127.278"
                    y2="43.748"
                    gradientUnits="userSpaceOnUse">
                    <stop stop-color="#D90217" />
                    <stop offset="1" stop-color="#FF4B5C" />
                  </linearGradient>
                </defs>
              </svg>