<svg width="27" height="27" viewBox="0 0 27 27" fill="none" xmlns="http://www.w3.org/2000/svg">
<g clip-path="url(#clip0_820_405)">
<path d="M19.0026 0H14.5303V18.0763C14.5303 20.2301 12.8102 21.9993 10.6696 21.9993C8.52895 21.9993 6.80883 20.2301 6.80883 18.0763C6.80883 15.961 8.49073 14.2302 10.5549 14.1534V9.61507C6.0061 9.69196 2.33649 13.4226 2.33649 18.0763C2.33649 22.7685 6.08255 26.5375 10.7078 26.5375C15.333 26.5375 19.0791 22.73 19.0791 18.0763V8.80737C20.761 10.0381 22.8251 10.7689 25.004 10.8073V6.26902C21.6402 6.15364 19.0026 3.3845 19.0026 0Z" fill="white"/>
</g>
<defs>
<clipPath id="clip0_820_405">
<rect width="26.5375" height="26.5375" fill="white" transform="translate(0.125)"/>
</clipPath>
</defs>
</svg>
