<svg
  width="462"
  height="162"
  viewBox="0 0 462 162"
  fill="none"
  xmlns="http://www.w3.org/2000/svg"
>
  <path
    d="M0.666667 18.6707C0.666667 26.0345 6.6362 32.0041 14 32.0041C21.3638 32.0041 27.3333 26.0345 27.3333 18.6707C27.3333 11.3069 21.3638 5.3374 14 5.3374C6.6362 5.3374 0.666667 11.3069 0.666667 18.6707ZM301.135 61.716L299.31 63.424L301.135 61.716ZM204.847 108.265L207.231 109.016L204.847 108.265ZM462 147.306L447.178 122.535L433.136 147.757L462 147.306ZM19.4822 19.7513C20.8161 19.3948 21.6086 18.0245 21.2521 16.6906C20.8957 15.3567 19.5254 14.5643 18.1915 14.9207L19.4822 19.7513ZM28.0778 12.4369C26.7341 12.7543 25.9021 14.1009 26.2195 15.4447C26.5369 16.7884 27.8836 17.6204 29.2273 17.303L28.0778 12.4369ZM39.0273 15.1217C40.3787 14.8386 41.2447 13.5136 40.9616 12.1622C40.6785 10.8109 39.3535 9.94483 38.0021 10.2279L39.0273 15.1217ZM48.0033 8.25659C46.6456 8.50785 45.7487 9.81213 45.9999 11.1698C46.2512 12.5274 47.5555 13.4244 48.9131 13.1731L48.0033 8.25659ZM58.8464 11.4499C60.2093 11.229 61.1351 9.94506 60.9142 8.58214C60.6933 7.21921 59.4093 6.29342 58.0464 6.51433L58.8464 11.4499ZM68.0862 4.99852C66.7188 5.18993 65.7655 6.45358 65.9569 7.82096C66.1483 9.18834 67.4119 10.1416 68.7793 9.95024L68.0862 4.99852ZM78.7528 8.66277C80.124 8.50064 81.1041 7.25767 80.942 5.88651C80.7799 4.51535 79.5369 3.53523 78.1657 3.69735L78.7528 8.66277ZM88.276 2.61164C86.9016 2.74431 85.8951 3.96597 86.0277 5.34029C86.1604 6.71461 87.3821 7.72117 88.7564 7.58851L88.276 2.61164ZM98.7822 6.7303C100.159 6.62756 101.192 5.42808 101.089 4.0512C100.987 2.67431 99.7871 1.64142 98.4102 1.74416L98.7822 6.7303ZM108.563 1.09956C107.184 1.17164 106.125 2.34783 106.197 3.72666C106.269 5.10549 107.445 6.16482 108.824 6.09274L108.563 1.09956ZM118.876 5.68209C120.256 5.64165 121.342 4.49005 121.302 3.10993C121.262 1.72981 120.11 0.643793 118.73 0.684238L118.876 5.68209ZM128.906 0.506339C127.525 0.513943 126.412 1.63938 126.419 3.02007C126.427 4.40076 127.552 5.51387 128.933 5.50626L128.906 0.506339ZM138.989 5.57473C140.369 5.6014 141.51 4.50393 141.536 3.12348C141.563 1.74302 140.466 0.602329 139.085 0.575664L138.989 5.57473ZM149.262 0.903694C147.883 0.841111 146.714 1.90852 146.652 3.28781C146.589 4.6671 147.657 5.83597 149.036 5.89856L149.262 0.903694ZM159.067 6.49036C160.444 6.59074 161.642 5.55578 161.742 4.17872C161.843 2.80166 160.808 1.60397 159.431 1.50359L159.067 6.49036ZM169.582 2.39024C168.208 2.24997 166.981 3.24976 166.841 4.62333C166.7 5.9969 167.7 7.2241 169.074 7.36437L169.582 2.39024ZM179.045 8.53638C180.414 8.71886 181.671 7.75733 181.854 6.38873C182.036 5.02013 181.075 3.76273 179.706 3.58024L179.045 8.53638ZM189.792 5.09197C188.43 4.86472 187.142 5.78451 186.915 7.14639C186.687 8.50827 187.607 9.79652 188.969 10.0238L189.792 5.09197ZM198.831 11.8455C200.184 12.1203 201.504 11.2462 201.779 9.8931C202.053 8.54001 201.179 7.22034 199.826 6.94553L198.831 11.8455ZM209.792 9.16266C208.45 8.83733 207.099 9.66137 206.774 11.0032C206.448 12.345 207.272 13.6966 208.614 14.0219L209.792 9.16266ZM218.299 16.5745C219.626 16.9535 221.01 16.1844 221.389 14.8567C221.768 13.5291 220.999 12.1455 219.671 11.7666L218.299 16.5745ZM229.439 14.7815C228.129 14.3457 226.714 15.0543 226.278 16.3645C225.842 17.6746 226.551 19.09 227.861 19.5258L229.439 14.7815ZM237.274 22.8987C238.563 23.3948 240.009 22.7524 240.505 21.4638C241.001 20.1753 240.359 18.7286 239.07 18.2326L237.274 22.8987ZM248.532 22.1443C247.27 21.5849 245.793 22.1548 245.234 23.4171C244.674 24.6794 245.244 26.1562 246.506 26.7156L248.532 22.1443ZM255.522 30.9975C256.753 31.6231 258.258 31.1325 258.884 29.9016C259.509 28.6708 259.019 27.1658 257.788 26.5402L255.522 30.9975ZM266.796 31.4409C265.602 30.7467 264.072 31.1514 263.377 32.3449C262.683 33.5383 263.088 35.0686 264.281 35.7629L266.796 31.4409ZM272.74 41.0259C273.89 41.7905 275.442 41.4783 276.206 40.3286C276.971 39.1789 276.659 37.6271 275.509 36.8625L272.74 41.0259ZM283.878 42.8145C282.779 41.9789 281.21 42.1925 280.375 43.2916C279.539 44.3907 279.753 45.9592 280.852 46.7948L283.878 42.8145ZM288.568 53.0705C289.61 53.9767 291.189 53.8669 292.095 52.8251C293.001 51.7835 292.892 50.2044 291.85 49.2981L288.568 53.0705ZM299.373 56.3043C298.395 55.3294 296.812 55.3316 295.837 56.3093C294.863 57.287 294.865 58.8699 295.842 59.8448L299.373 56.3043ZM302.636 67.1075C303.542 68.149 305.121 68.2586 306.163 67.3521C307.204 66.4457 307.314 64.8666 306.408 63.8251L302.636 67.1075ZM312.615 71.5559C311.797 70.4433 310.233 70.2041 309.12 71.0216C308.007 71.8392 307.768 73.4039 308.586 74.5165L312.615 71.5559ZM313.795 82.4143C314.49 83.6072 316.021 84.0105 317.214 83.3152C318.406 82.6199 318.81 81.0892 318.114 79.8963L313.795 82.4143ZM322.613 88.9442C322.089 87.6665 320.629 87.0552 319.351 87.5787C318.074 88.1022 317.462 89.5623 317.986 90.8399L322.613 88.9442ZM320.753 99.7174C321.037 101.069 322.363 101.934 323.714 101.649C325.065 101.365 325.93 100.04 325.646 98.6884L320.753 99.7174ZM326.643 108.908C326.67 107.527 325.573 106.386 324.192 106.36C322.812 106.333 321.671 107.43 321.644 108.81L326.643 108.908ZM320.317 117.791C319.941 119.119 320.712 120.501 322.041 120.878C323.369 121.254 324.751 120.482 325.128 119.154L320.317 117.791ZM321.065 128.678C321.758 127.484 321.353 125.954 320.159 125.26C318.965 124.566 317.435 124.972 316.741 126.166L321.065 128.678ZM311.265 133.563C310.333 134.582 310.403 136.163 311.422 137.095C312.441 138.027 314.022 137.956 314.954 136.938L311.265 133.563ZM307.439 143.8C308.533 142.958 308.737 141.388 307.894 140.294C307.052 139.2 305.482 138.997 304.388 139.839L307.439 143.8ZM296.522 145.029C295.32 145.709 294.897 147.235 295.577 148.436C296.257 149.638 297.782 150.061 298.984 149.381L296.522 145.029ZM289.963 153.787C291.237 153.254 291.837 151.789 291.303 150.515C290.77 149.242 289.305 148.642 288.032 149.175L289.963 153.787ZM279.086 152.375C277.763 152.772 277.014 154.166 277.411 155.488C277.808 156.811 279.202 157.56 280.525 157.163L279.086 152.375ZM270.809 159.569C272.164 159.303 273.046 157.988 272.78 156.634C272.513 155.279 271.199 154.397 269.844 154.663L270.809 159.569ZM260.422 156.049C259.048 156.184 258.043 157.407 258.177 158.781C258.312 160.155 259.535 161.16 260.909 161.026L260.422 156.049ZM250.896 161.499C252.276 161.505 253.401 160.391 253.407 159.01C253.413 157.63 252.299 156.505 250.918 156.499L250.896 161.499ZM241.471 155.93C240.1 155.766 238.856 156.744 238.692 158.115C238.528 159.486 239.507 160.73 240.878 160.894L241.471 155.93ZM230.939 159.029C232.275 159.38 233.642 158.582 233.993 157.247C234.344 155.911 233.546 154.544 232.211 154.193L230.939 159.029ZM223.439 151.077C222.186 150.496 220.7 151.04 220.119 152.293C219.538 153.545 220.083 155.032 221.335 155.613L223.439 151.077ZM212.515 150.236C213.596 151.095 215.168 150.915 216.027 149.834C216.886 148.753 216.706 147.181 215.625 146.322L212.515 150.236ZM209.509 139.782C208.737 138.638 207.183 138.336 206.038 139.109C204.894 139.881 204.592 141.435 205.365 142.579L209.509 139.782ZM201.009 133.014C201.368 134.347 202.74 135.137 204.073 134.778C205.406 134.419 206.196 133.047 205.837 131.714L201.009 133.014ZM204.8 122.738C204.827 121.358 203.729 120.217 202.349 120.19C200.968 120.163 199.828 121.261 199.801 122.641L204.8 122.738ZM201.094 112.541C200.787 113.887 201.63 115.227 202.976 115.534C204.322 115.841 205.662 114.998 205.969 113.652L201.094 112.541ZM208.933 104.482C209.49 103.219 208.918 101.743 207.654 101.186C206.391 100.629 204.915 101.201 204.358 102.465L208.933 104.482ZM209.859 93.2524C209.005 94.3377 209.193 95.9094 210.278 96.763C211.364 97.6165 212.935 97.4287 213.789 96.3434L209.859 93.2524ZM220.566 89.7389C221.671 88.9104 221.895 87.3434 221.066 86.2389C220.238 85.1343 218.671 84.9104 217.566 85.7389L220.566 89.7389ZM226.784 80.3744C225.522 80.9355 224.954 82.4131 225.516 83.6747C226.077 84.9362 227.554 85.5039 228.816 84.9428L226.784 80.3744ZM238.024 81.8177C239.363 81.4832 240.178 80.1261 239.843 78.7865C239.509 77.447 238.152 76.6322 236.812 76.9667L238.024 81.8177ZM247.079 75.1263C245.707 75.2863 244.725 76.5279 244.885 77.8993C245.045 79.2707 246.287 80.2526 247.658 80.0925L247.079 75.1263ZM257.558 79.4432C258.938 79.4164 260.035 78.2757 260.009 76.8952C259.982 75.5148 258.841 74.4174 257.461 74.4441L257.558 79.4432ZM267.817 74.6452C266.438 74.5691 265.259 75.625 265.183 77.0036C265.107 78.3822 266.162 79.5615 267.541 79.6376L267.817 74.6452ZM277.483 80.4908C278.855 80.6476 280.094 79.6628 280.251 78.291C280.408 76.9192 279.423 75.68 278.051 75.5231L277.483 80.4908ZM288.212 76.9395C286.85 76.7173 285.565 77.642 285.343 79.0047C285.12 80.3674 286.045 81.6522 287.408 81.8744L288.212 76.9395ZM297.29 83.6932C298.643 83.9693 299.963 83.0964 300.239 81.7435C300.515 80.3907 299.643 79.0702 298.29 78.7942L297.29 83.6932ZM308.281 81.013C306.938 80.6916 305.589 81.5197 305.268 82.8624C304.946 84.2052 305.774 85.5543 307.117 85.8757L308.281 81.013ZM316.883 88.367C318.216 88.7272 319.589 87.9387 319.949 86.6058C320.309 85.2729 319.521 83.9004 318.188 83.5402L316.883 88.367ZM328.014 86.3328C326.691 85.9389 325.299 86.6923 324.905 88.0157C324.511 89.339 325.265 90.7311 326.588 91.125L328.014 86.3328ZM336.231 94.1165C337.545 94.5401 338.954 93.8182 339.377 92.5041C339.801 91.19 339.079 89.7813 337.765 89.3576L336.231 94.1165ZM347.443 92.5881C346.138 92.138 344.715 92.8312 344.265 94.1364C343.815 95.4417 344.508 96.8648 345.813 97.3149L347.443 92.5881ZM355.336 100.699C356.633 101.173 358.069 100.506 358.543 99.2095C359.017 97.9127 358.35 96.4772 357.053 96.0031L355.336 100.699ZM366.597 99.5852C365.309 99.0893 363.862 99.7319 363.366 101.02C362.87 102.309 363.513 103.756 364.801 104.252L366.597 99.5852ZM374.209 107.958C375.49 108.474 376.947 107.854 377.463 106.574C377.979 105.293 377.359 103.837 376.078 103.321L374.209 107.958ZM385.498 107.198C384.225 106.663 382.759 107.261 382.225 108.534C381.69 109.807 382.288 111.273 383.561 111.807L385.498 107.198ZM392.857 115.79C394.123 116.342 395.596 115.764 396.149 114.499C396.701 113.234 396.123 111.76 394.858 111.208L392.857 115.79ZM404.16 115.343C402.902 114.774 401.421 115.332 400.852 116.59C400.283 117.848 400.841 119.329 402.099 119.899L404.16 115.343ZM411.286 124.128C412.537 124.714 414.025 124.175 414.61 122.924C415.196 121.674 414.657 120.186 413.406 119.6L411.286 124.128ZM422.598 123.975C421.355 123.374 419.86 123.894 419.259 125.137C418.658 126.38 419.178 127.875 420.421 128.476L422.598 123.975ZM429.503 132.941C430.738 133.558 432.239 133.057 432.856 131.822C433.473 130.586 432.972 129.085 431.737 128.468L429.503 132.941ZM440.823 133.08C439.596 132.447 438.088 132.929 437.455 134.156C436.823 135.383 437.304 136.891 438.531 137.524L440.823 133.08ZM447.503 142.227C448.722 142.876 450.236 142.415 450.885 141.196C451.535 139.978 451.073 138.464 449.855 137.814L447.503 142.227ZM458.823 142.676C457.614 142.009 456.094 142.449 455.427 143.658C454.76 144.867 455.199 146.387 456.408 147.054L458.823 142.676ZM14.6854 21.0749C16.2363 20.6328 17.836 20.1911 19.4822 19.7513L18.1915 14.9207C16.5193 15.3675 14.8929 15.8166 13.3146 16.2665L14.6854 21.0749ZM29.2273 17.303C32.371 16.5603 35.6415 15.8309 39.0273 15.1217L38.0021 10.2279C34.5756 10.9457 31.2636 11.6843 28.0778 12.4369L29.2273 17.303ZM48.9131 13.1731C52.143 12.5754 55.4569 11.9993 58.8464 11.4499L58.0464 6.51433C54.6201 7.06967 51.2696 7.65211 48.0033 8.25659L48.9131 13.1731ZM68.7793 9.95024C72.0481 9.49266 75.3748 9.06217 78.7528 8.66277L78.1657 3.69735C74.7519 4.101 71.3898 4.53606 68.0862 4.99852L68.7793 9.95024ZM88.7564 7.58851C92.0598 7.26962 95.4037 6.9824 98.7822 6.7303L98.4102 1.74416C94.9948 1.99902 91.6148 2.28934 88.276 2.61164L88.7564 7.58851ZM108.824 6.09274C112.15 5.91889 115.502 5.78098 118.876 5.68209L118.73 0.684238C115.316 0.784271 111.926 0.92376 108.563 1.09956L108.824 6.09274ZM128.933 5.50626C132.271 5.48788 135.624 5.50974 138.989 5.57473L139.085 0.575664C135.678 0.509857 132.283 0.487735 128.906 0.506339L128.933 5.50626ZM149.036 5.89856C152.375 6.05008 155.721 6.24643 159.067 6.49036L159.431 1.50359C156.037 1.25624 152.646 1.05722 149.262 0.903694L149.036 5.89856ZM169.074 7.36437C172.403 7.7043 175.728 8.09407 179.045 8.53638L179.706 3.58024C176.336 3.13094 172.96 2.73522 169.582 2.39024L169.074 7.36437ZM188.969 10.0238C192.271 10.5747 195.56 11.1811 198.831 11.8455L199.826 6.94553C196.496 6.26912 193.149 5.65223 189.792 5.09197L188.969 10.0238ZM208.614 14.0219C211.866 14.8104 215.096 15.6603 218.299 16.5745L219.671 11.7666C216.402 10.8334 213.107 9.96639 209.792 9.16266L208.614 14.0219ZM227.861 19.5258C231.033 20.5811 234.172 21.7045 237.274 22.8987L239.07 18.2326C235.894 17.0097 232.682 15.8604 229.439 14.7815L227.861 19.5258ZM246.506 26.7156C249.556 28.067 252.563 29.4934 255.522 30.9975L257.788 26.5402C254.747 24.9948 251.66 23.5305 248.532 22.1443L246.506 26.7156ZM264.281 35.7629C267.156 37.4348 269.977 39.1882 272.74 41.0259L275.509 36.8625C272.66 34.9679 269.754 33.1617 266.796 31.4409L264.281 35.7629ZM280.852 46.7948C283.488 48.7988 286.061 50.8897 288.568 53.0705L291.85 49.2981C289.258 47.0438 286.599 44.8836 283.878 42.8145L280.852 46.7948ZM295.842 59.8448C297.016 61.0149 298.172 62.2079 299.31 63.424L302.961 60.008C301.783 58.7494 300.587 57.515 299.373 56.3043L295.842 59.8448ZM299.31 63.424C300.469 64.6629 301.577 65.8908 302.636 67.1075L306.408 63.8251C305.308 62.5617 304.159 61.2893 302.961 60.008L299.31 63.424ZM308.586 74.5165C310.567 77.213 312.298 79.8462 313.795 82.4143L318.114 79.8963C316.522 77.1646 314.693 74.3839 312.615 71.5559L308.586 74.5165ZM317.986 90.8399C319.244 93.9095 320.154 96.8695 320.753 99.7174L325.646 98.6884C324.981 95.5237 323.977 92.2741 322.613 88.9442L317.986 90.8399ZM321.644 108.81C321.583 111.951 321.124 114.944 320.317 117.791L325.128 119.154C326.051 115.897 326.573 112.478 326.643 108.908L321.644 108.81ZM316.741 126.166C315.224 128.777 313.384 131.246 311.265 133.563L314.954 136.938C317.294 134.379 319.353 131.624 321.065 128.678L316.741 126.166ZM304.388 139.839C301.952 141.715 299.317 143.448 296.522 145.029L298.984 149.381C301.968 147.693 304.802 145.831 307.439 143.8L304.388 139.839ZM288.032 149.175C285.139 150.387 282.145 151.455 279.086 152.375L280.525 157.163C283.745 156.195 286.904 155.069 289.963 153.787L288.032 149.175ZM269.844 154.663C266.717 155.279 263.564 155.742 260.422 156.049L260.909 161.026C264.213 160.703 267.525 160.216 270.809 159.569L269.844 154.663ZM250.918 156.499C247.699 156.485 244.537 156.296 241.471 155.93L240.878 160.894C244.144 161.285 247.497 161.484 250.896 161.499L250.918 156.499ZM232.211 154.193C229.09 153.373 226.15 152.334 223.439 151.077L221.335 155.613C224.342 157.007 227.565 158.142 230.939 159.029L232.211 154.193ZM215.625 146.322C213.219 144.41 211.162 142.231 209.509 139.782L205.365 142.579C207.328 145.488 209.745 148.035 212.515 150.236L215.625 146.322ZM205.837 131.714C205.105 128.995 204.736 126.009 204.8 122.738L199.801 122.641C199.729 126.35 200.146 129.809 201.009 133.014L205.837 131.714ZM205.969 113.652C206.311 112.154 206.73 110.609 207.231 109.016L202.462 107.514C201.922 109.229 201.467 110.905 201.094 112.541L205.969 113.652ZM207.231 109.016C207.731 107.428 208.3 105.918 208.933 104.482L204.358 102.465C203.648 104.074 203.015 105.757 202.462 107.514L207.231 109.016ZM213.789 96.3434C215.758 93.8393 218.025 91.6452 220.566 89.7389L217.566 85.7389C214.688 87.8973 212.107 90.3944 209.859 93.2524L213.789 96.3434ZM228.816 84.9428C231.663 83.6762 234.738 82.6381 238.024 81.8177L236.812 76.9667C233.277 77.8493 229.925 78.9771 226.784 80.3744L228.816 84.9428ZM247.658 80.0925C250.824 79.723 254.128 79.5096 257.558 79.4432L257.461 74.4441C253.887 74.5133 250.421 74.7361 247.079 75.1263L247.658 80.0925ZM267.541 79.6376C270.774 79.8162 274.091 80.1029 277.483 80.4908L278.051 75.5231C274.57 75.1252 271.155 74.8296 267.817 74.6452L267.541 79.6376ZM287.408 81.8744C290.652 82.4031 293.948 83.0114 297.29 83.6932L298.29 78.7942C294.888 78.1 291.526 77.4796 288.212 76.9395L287.408 81.8744ZM307.117 85.8757C310.343 86.6477 313.6 87.4798 316.883 88.367L318.188 83.5402C314.861 82.6411 311.556 81.7969 308.281 81.013L307.117 85.8757ZM326.588 91.125C329.787 92.0775 333.004 93.0761 336.231 94.1165L337.765 89.3576C334.504 88.3063 331.252 87.2965 328.014 86.3328L326.588 91.125ZM345.813 97.3149C348.985 98.4089 352.162 99.5384 355.336 100.699L357.053 96.0031C353.851 94.8323 350.646 93.6925 347.443 92.5881L345.813 97.3149ZM364.801 104.252C367.947 105.462 371.085 106.699 374.209 107.958L376.078 103.321C372.93 102.052 369.768 100.805 366.597 99.5852L364.801 104.252ZM383.561 111.807C386.681 113.118 389.781 114.447 392.857 115.79L394.858 111.208C391.761 109.856 388.639 108.518 385.498 107.198L383.561 111.807ZM402.099 119.899C405.196 121.3 408.26 122.712 411.286 124.128L413.406 119.6C410.361 118.174 407.277 116.754 404.16 115.343L402.099 119.899ZM420.421 128.476C423.5 129.966 426.53 131.456 429.503 132.941L431.737 128.468C428.745 126.973 425.696 125.474 422.598 123.975L420.421 128.476ZM438.531 137.524C441.599 139.106 444.593 140.676 447.503 142.227L449.855 137.814C446.924 136.253 443.911 134.672 440.823 133.08L438.531 137.524Z"
    fill="#3E3E3E"
  />
</svg>
